<svg width="200" height="200" viewBox="0 0 24 24" fill="none" xmlns="http://www.w3.org/2000/svg">
  <path d="M12 6C13.1046 6 14 5.10457 14 4C14 2.89543 13.1046 2 12 2C10.8954 2 10 2.89543 10 4C10 5.10457 10.8954 6 12 6Z" stroke="#1d4e89" stroke-width="1.5" stroke-linecap="round" stroke-linejoin="round"/>
  <path d="M6 12C7.10457 12 8 11.1046 8 10C8 8.89543 7.10457 8 6 8C4.89543 8 4 8.89543 4 10C4 11.1046 4.89543 12 6 12Z" stroke="#1d4e89" stroke-width="1.5" stroke-linecap="round" stroke-linejoin="round"/>
  <path d="M18 12C19.1046 12 20 11.1046 20 10C20 8.89543 19.1046 8 18 8C16.8954 8 16 8.89543 16 10C16 11.1046 16.8954 12 18 12Z" stroke="#1d4e89" stroke-width="1.5" stroke-linecap="round" stroke-linejoin="round"/>
  <path d="M12 22C13.1046 22 14 21.1046 14 20C14 18.8954 13.1046 18 12 18C10.8954 18 10 18.8954 10 20C10 21.1046 10.8954 22 12 22Z" stroke="#1d4e89" stroke-width="1.5" stroke-linecap="round" stroke-linejoin="round"/>
  <path d="M12 6V18" stroke="#1d4e89" stroke-width="1.5" stroke-linecap="round" stroke-linejoin="round"/>
  <path d="M6 12L12 15L18 12" stroke="#1d4e89" stroke-width="1.5" stroke-linecap="round" stroke-linejoin="round"/>
  <path d="M12 15V18" stroke="#1d4e89" stroke-width="1.5" stroke-linecap="round" stroke-linejoin="round"/>
  <path d="M6 10L12 6L18 10" stroke="#1d4e89" stroke-width="1.5" stroke-linecap="round" stroke-linejoin="round"/>
</svg>
